<svg xmlns="http://www.w3.org/2000/svg" xmlns:xlink="http://www.w3.org/1999/xlink" width="108" height="108" viewBox="0 0 108 108">
  <defs>
    <filter id="Trazado_904820" x="0" y="0" width="108" height="108" filterUnits="userSpaceOnUse">
      <feOffset dy="3" input="SourceAlpha"/>
      <feGaussianBlur stdDeviation="3" result="blur"/>
      <feFlood flood-opacity="0.161"/>
      <feComposite operator="in" in2="blur"/>
      <feComposite in="SourceGraphic"/>
    </filter>
  </defs>
  <g id="Grupo_1147847" data-name="Grupo 1147847" transform="translate(-201.051 -609)">
    <g id="Grupo_1148976" data-name="Grupo 1148976">
      <g id="Grupo_1145614" data-name="Grupo 1145614" transform="translate(0.051 128)">
        <g id="Icono" transform="translate(-414.101 -4519)">
          <g transform="matrix(1, 0, 0, 1, 615.1, 5000)" filter="url(#Trazado_904820)">
            <g id="Trazado_904820-2" data-name="Trazado 904820" transform="translate(9 6)" fill="#f3f0ea">
              <path d="M 45 88.5 C 39.12687683105469 88.5 33.43022537231445 87.35007476806641 28.06830024719238 85.08217620849609 C 22.88852500915527 82.89131164550781 18.23629951477051 79.75458526611328 14.2408504486084 75.75914764404297 C 10.24541282653809 71.76370239257812 7.108687400817871 67.11147308349609 4.917825222015381 61.93170166015625 C 2.649924993515015 56.56977462768555 1.5 50.87312316894531 1.5 45 C 1.5 39.12687683105469 2.649924993515015 33.43022537231445 4.917825222015381 28.06830024719238 C 7.108687400817871 22.88852500915527 10.24541282653809 18.23629951477051 14.2408504486084 14.2408504486084 C 18.23629951477051 10.24541282653809 22.88852500915527 7.108687400817871 28.06830024719238 4.917825222015381 C 33.43022537231445 2.649924993515015 39.12687683105469 1.5 45 1.5 C 50.87312316894531 1.5 56.56977462768555 2.649924993515015 61.93170166015625 4.917825222015381 C 67.11147308349609 7.108687400817871 71.76370239257812 10.24541282653809 75.75914764404297 14.2408504486084 C 79.75458526611328 18.23629951477051 82.89131164550781 22.88852500915527 85.08217620849609 28.06830024719238 C 87.35007476806641 33.43022537231445 88.5 39.12687683105469 88.5 45 C 88.5 50.87312316894531 87.35007476806641 56.56977462768555 85.08217620849609 61.93170166015625 C 82.89131164550781 67.11147308349609 79.75458526611328 71.76370239257812 75.75914764404297 75.75914764404297 C 71.76370239257812 79.75458526611328 67.11147308349609 82.89131164550781 61.93170166015625 85.08217620849609 C 56.56977462768555 87.35007476806641 50.87312316894531 88.5 45 88.5 Z" stroke="none"/>
              <path d="M 45 3 C 39.32871246337891 3 33.82865524291992 4.110054016113281 28.65262985229492 6.299339294433594 C 23.65165710449219 8.414573669433594 19.15968322753906 11.44334411621094 15.301513671875 15.301513671875 C 11.44334411621094 19.15968322753906 8.414573669433594 23.65165710449219 6.299339294433594 28.65262985229492 C 4.110054016113281 33.82865524291992 3 39.32871246337891 3 45 C 3 50.67128753662109 4.110054016113281 56.17134475708008 6.299339294433594 61.34737396240234 C 8.414573669433594 66.34834289550781 11.44334411621094 70.84031677246094 15.301513671875 74.698486328125 C 19.15968322753906 78.55665588378906 23.65165710449219 81.58542633056641 28.65262985229492 83.70066070556641 C 33.82865524291992 85.88994598388672 39.32871246337891 87 45 87 C 50.67128753662109 87 56.17134475708008 85.88994598388672 61.34737396240234 83.70066070556641 C 66.34834289550781 81.58542633056641 70.84031677246094 78.55665588378906 74.698486328125 74.698486328125 C 78.55665588378906 70.84031677246094 81.58542633056641 66.34834289550781 83.70066070556641 61.34737396240234 C 85.88994598388672 56.17134475708008 87 50.67128753662109 87 45 C 87 39.32871246337891 85.88994598388672 33.82865524291992 83.70066070556641 28.65262985229492 C 81.58542633056641 23.65165710449219 78.55665588378906 19.15968322753906 74.698486328125 15.301513671875 C 70.84031677246094 11.44334411621094 66.34834289550781 8.414573669433594 61.34737396240234 6.299339294433594 C 56.17134475708008 4.110054016113281 50.67128753662109 3 45 3 M 45 0 C 69.85281372070312 0 90 20.14718627929688 90 45 C 90 69.85281372070312 69.85281372070312 90 45 90 C 20.14718627929688 90 0 69.85281372070312 0 45 C 0 20.14718627929688 20.14718627929688 0 45 0 Z" stroke="none" fill="#1d531a"/>
            </g>
          </g>
        </g>
      </g>
      <g id="engineer_2127671" transform="translate(227.16 627.23)">
        <path id="Trazado_898053" data-name="Trazado 898053" d="M37.715,56H31v5.079h8.127V56Z" transform="translate(-1.54 -1.144)" fill="#f04a23"/>
        <path id="Trazado_898054" data-name="Trazado 898054" d="M31,53v3.048h8.127V53Z" transform="translate(-1.54 -1.192)" fill="#ff5023"/>
        <path id="Trazado_898055" data-name="Trazado 898055" d="M44.143,45.267a10.063,10.063,0,0,0-4.957-3.423l-.528-.163L32.308,39.69l.8,5.394L26,47.116V61.338h5.079V53.211h8.127v8.127h7.111v-9.8a10.092,10.092,0,0,0-2.174-6.268Z" transform="translate(-1.62 -1.403)" fill="#ff6243"/>
        <path id="Trazado_898056" data-name="Trazado 898056" d="M42.048,55H39v6.1H49.159V55Z" transform="translate(-1.413 -1.16)" fill="#ff5023"/>
        <path id="Trazado_898057" data-name="Trazado 898057" d="M58.04,50.715a9.955,9.955,0,0,1-1.107,2.662l2.052,2.733-2.875,2.875-2.733-2.052a9.955,9.955,0,0,1-2.662,1.107l-.477,3.373H46.174L45.7,58.039a9.955,9.955,0,0,1-2.662-1.107L40.3,58.984l-2.651-2.651-.223-.223,1.636-2.174.416-.559a8.269,8.269,0,0,1-.416-.782,9.642,9.642,0,0,1-.691-1.879L35,50.238V46.174l3.373-.477a9.955,9.955,0,0,1,1.107-2.662l-.965-1.28L37.428,40.3,40.3,37.428l2.733,2.052A9.955,9.955,0,0,1,45.7,38.373L46.174,35h4.063l.477,3.373a9.955,9.955,0,0,1,2.662,1.107l2.733-2.052L58.984,40.3l-2.052,2.733A9.955,9.955,0,0,1,58.04,45.7l3.373.477v4.063Z" transform="translate(-1.477 -1.477)" fill="#ff9811"/>
        <path id="Trazado_898058" data-name="Trazado 898058" d="M48.08,43a5.079,5.079,0,0,0-2.032,9.742,5.187,5.187,0,0,0,2.032.416A5.079,5.079,0,1,0,48.08,43Z" transform="translate(-1.35 -1.35)" fill="#ffd422"/>
        <path id="Trazado_898059" data-name="Trazado 898059" d="M37.016,19A2.032,2.032,0,1,1,36,22.789V19.274A2.032,2.032,0,0,1,37.016,19Z" transform="translate(-1.461 -1.731)" fill="#ffb655"/>
        <path id="Trazado_898060" data-name="Trazado 898060" d="M36.317,22.789V25.1A10.159,10.159,0,0,1,16,25.1V19H36.317Z" transform="translate(-1.778 -1.731)" fill="#ffc477"/>
        <path id="Trazado_898061" data-name="Trazado 898061" d="M36.127,15.063H28V11h7.274A10.038,10.038,0,0,1,36.127,15.063Z" transform="translate(-1.588 -1.857)" fill="#ffa733"/>
        <path id="Trazado_898062" data-name="Trazado 898062" d="M35.274,11.092H28V5.2A10.177,10.177,0,0,1,35.274,11.092Z" transform="translate(-1.588 -1.949)" fill="#ff9811"/>
        <path id="Trazado_898063" data-name="Trazado 898063" d="M32.308,39.7l.8,5.394L26,47.127,30.063,39Z" transform="translate(-1.62 -1.414)" fill="#ff5023"/>
        <path id="Trazado_898064" data-name="Trazado 898064" d="M30.127,34.16v4.917L26.063,47.2,22,39.077V34.16A10.1,10.1,0,0,0,30.127,34.16Z" transform="translate(-1.683 -1.49)" fill="#ffc477"/>
        <path id="Trazado_898065" data-name="Trazado 898065" d="M24,11h4.063v4.063H24Z" transform="translate(-1.651 -1.857)" fill="#ffa733"/>
        <path id="Trazado_898066" data-name="Trazado 898066" d="M28.063,5.2V11.1H24V5.2A10.26,10.26,0,0,1,28.063,5.2Z" transform="translate(-1.651 -1.952)" fill="#ee8700"/>
        <path id="Trazado_898067" data-name="Trazado 898067" d="M28.063,3V5.235a10.26,10.26,0,0,0-4.063,0V3Z" transform="translate(-1.651 -1.984)" fill="#ee8700"/>
        <path id="Trazado_898068" data-name="Trazado 898068" d="M13.111,53.211v2.032H6V51.535a10.148,10.148,0,0,1,7.134-9.692l6.875-2.153-.8,5.394,7.111,2.032V61.338H21.238V53.211Z" transform="translate(-1.937 -1.403)" fill="#ff6243"/>
        <path id="Trazado_898069" data-name="Trazado 898069" d="M22.048,39l4.063,8.127L19,45.1l.8-5.394Z" transform="translate(-1.731 -1.414)" fill="#ff5023"/>
        <path id="Trazado_898070" data-name="Trazado 898070" d="M24.127,11v4.063H16A10.038,10.038,0,0,1,16.853,11Z" transform="translate(-1.778 -1.857)" fill="#ffa733"/>
        <path id="Trazado_898071" data-name="Trazado 898071" d="M24.114,5.2v5.892H16.84A10.152,10.152,0,0,1,24.114,5.2Z" transform="translate(-1.765 -1.949)" fill="#ff9811"/>
        <path id="Trazado_898072" data-name="Trazado 898072" d="M13,56h8.127v5.079H13Z" transform="translate(-1.826 -1.144)" fill="#f04a23"/>
        <path id="Trazado_898073" data-name="Trazado 898073" d="M21.127,53v3.048H13V53Z" transform="translate(-1.826 -1.192)" fill="#ff5023"/>
        <path id="Trazado_898074" data-name="Trazado 898074" d="M16.048,19.274v3.515a2.032,2.032,0,1,1,0-3.515Z" transform="translate(-1.826 -1.731)" fill="#ffb655"/>
        <path id="Trazado_898075" data-name="Trazado 898075" d="M40.876,15.6a1.986,1.986,0,0,0-1.432-.6H13.032a2.032,2.032,0,1,0,0,4.063H39.444a2.038,2.038,0,0,0,2.032-2.032A1.986,1.986,0,0,0,40.876,15.6Z" transform="translate(-1.857 -1.794)" fill="#ee8700"/>
        <path id="Trazado_898076" data-name="Trazado 898076" d="M6.048,55H3v6.1H13.159V55Z" transform="translate(-1.984 -1.16)" fill="#ff5023"/>
        <path id="Trazado_898077" data-name="Trazado 898077" d="M30.127,34.16v2.032a10.1,10.1,0,0,1-8.127,0V34.16A10.1,10.1,0,0,0,30.127,34.16Z" transform="translate(-1.683 -1.49)" fill="#ffb655"/>
        <path id="Trazado_898078" data-name="Trazado 898078" d="M16,19H36.317v2.032H16Z" transform="translate(-1.778 -1.731)" fill="#ffb655"/>
        <path id="Trazado_898079" data-name="Trazado 898079" d="M62.08,45.692,59.355,45.3a11.031,11.031,0,0,0-.69-1.665l1.651-2.2a1.016,1.016,0,0,0-.094-1.327l-2.873-2.873a1.016,1.016,0,0,0-1.327-.094l-2.2,1.651a11.073,11.073,0,0,0-1.665-.69l-.389-2.725a1.016,1.016,0,0,0-1.006-.872H46.7a1.016,1.016,0,0,0-1.006.872L45.3,38.1a11.032,11.032,0,0,0-1.665.69l-2.2-1.651a1.009,1.009,0,0,0-1.327.094L37.237,40.11a.978.978,0,0,0-.249.462L31.46,38.841V35.3a11.105,11.105,0,0,0,6.1-9.937V24.349a3.037,3.037,0,0,0,2.824-4.181,3.04,3.04,0,0,0-.792-5.977H37.5a10.9,10.9,0,0,0-.886-3.454,11.168,11.168,0,0,0-7.189-6.262V3.016A1.016,1.016,0,0,0,28.412,2H24.349a1.016,1.016,0,0,0-1.016,1.016V4.454a11.164,11.164,0,0,0-7.186,6.282,10.912,10.912,0,0,0-.889,3.454H13.174a3.04,3.04,0,0,0-.792,5.977,3.037,3.037,0,0,0,2.824,4.181v1.016A11.161,11.161,0,0,0,21.3,35.307l0,3.533-8.408,2.63A11.116,11.116,0,0,0,5.048,52.132v2.692H3.016A1.016,1.016,0,0,0,2,55.84v6.1a1.016,1.016,0,0,0,1.016,1.016H50.761a1.016,1.016,0,0,0,1.006-.872l.389-2.724a11.074,11.074,0,0,0,1.665-.69l2.2,1.651a1.016,1.016,0,0,0,1.327-.094l2.873-2.873a1.016,1.016,0,0,0,.094-1.327l-1.651-2.2a11.033,11.033,0,0,0,.69-1.665l2.725-.389a1.016,1.016,0,0,0,.872-1.006V46.7a1.016,1.016,0,0,0-.872-1.006Zm-26.7,6.075,2.725.389c.069.215.151.427.234.637H31.46a1.016,1.016,0,0,0-1.016,1.016v7.111H27.4V48.48l6.373-1.821a1.016,1.016,0,0,0,.726-1.127l-.564-3.788,4.5,1.408.365.486A11.03,11.03,0,0,0,38.1,45.3l-2.725.389a1.016,1.016,0,0,0-.872,1.006v4.063a1.016,1.016,0,0,0,.872,1.006Zm1.9,4.074h-4.8V54.824H38.04ZM23.333,36.1a10.862,10.862,0,0,0,6.1,0v3.244l-3.048,6.1-3.048-6.1Zm8.445,4.966.578,3.881L28.322,46.1l2.641-5.282Zm5.777-18.752V20.285a1.016,1.016,0,0,1,0,2.032Zm-3.6-12.19h-4.53V6.595a9.136,9.136,0,0,1,4.53,3.532ZM27.4,4.032v6.1H25.365v-6.1ZM23.333,6.589v3.538H18.785A9.074,9.074,0,0,1,23.333,6.589Zm-5.56,5.57H34.988a8.9,8.9,0,0,1,.476,2.032H17.3A8.939,8.939,0,0,1,17.773,12.159Zm-4.6,4.063H39.587a1.016,1.016,0,0,1,0,2.032H13.174a1.016,1.016,0,1,1,0-2.032ZM14.19,21.3a1.016,1.016,0,0,1,1.016-1.016v2.032A1.016,1.016,0,0,1,14.19,21.3Zm3.048,4.063V20.285H35.523v5.079a9.143,9.143,0,0,1-18.285,0Zm4.557,15.449L24.436,46.1,20.4,44.949l.578-3.882ZM7.079,52.132A9.092,9.092,0,0,1,13.5,43.41l5.331-1.668-.564,3.79a1.016,1.016,0,0,0,.726,1.127l6.373,1.821V60.919H22.317V53.808A1.016,1.016,0,0,0,21.3,52.793H14.19V49.745H12.159v5.079H7.079Zm7.111,2.692h6.1V55.84h-6.1Zm-10.159,6.1V56.856h8.127v4.063Zm10.159,0V57.872h6.1v3.048Zm18.285,0V57.872h5.282l2.351,2.35a1.016,1.016,0,0,0,1.327.094l2.2-1.651a11.033,11.033,0,0,0,1.665.69l.223,1.564ZM60.919,49.88l-2.5.357a1.016,1.016,0,0,0-.84.756,9.041,9.041,0,0,1-.992,2.393,1.016,1.016,0,0,0,.062,1.128l1.516,2.023-1.625,1.625-2.023-1.516a1.016,1.016,0,0,0-1.128-.062,9.041,9.041,0,0,1-2.393.992,1.016,1.016,0,0,0-.756.84l-.358,2.5h-2.3l-.357-2.5a1.016,1.016,0,0,0-.756-.84,9.041,9.041,0,0,1-2.393-.992,1.016,1.016,0,0,0-1.128.062l-2.023,1.516L39.3,56.537l1.516-2.023a1.016,1.016,0,0,0,.062-1.128,9.041,9.041,0,0,1-.992-2.393,1.016,1.016,0,0,0-.84-.756l-2.5-.358v-2.3l2.5-.357a1.016,1.016,0,0,0,.84-.756,9.041,9.041,0,0,1,.992-2.393,1.016,1.016,0,0,0-.062-1.128L39.3,40.922,40.921,39.3l2.023,1.516a1.016,1.016,0,0,0,1.128.062,9.041,9.041,0,0,1,2.393-.992,1.016,1.016,0,0,0,.756-.84l.358-2.5h2.3l.357,2.5a1.016,1.016,0,0,0,.756.84,9.041,9.041,0,0,1,2.393.992,1.016,1.016,0,0,0,1.128-.062L56.536,39.3l1.625,1.625-1.516,2.023a1.016,1.016,0,0,0-.062,1.128,9.041,9.041,0,0,1,.992,2.393,1.016,1.016,0,0,0,.84.756l2.5.358Z" transform="translate(-2 -2)"/>
        <path id="Trazado_898080" data-name="Trazado 898080" d="M48.1,42a6.1,6.1,0,1,0,6.1,6.1A6.1,6.1,0,0,0,48.1,42Zm0,10.159A4.063,4.063,0,1,1,52.159,48.1,4.063,4.063,0,0,1,48.1,52.159Z" transform="translate(-1.366 -1.366)"/>
        <path id="Trazado_898081" data-name="Trazado 898081" d="M47,38h2.032v2.032H47Z" transform="translate(-1.287 -1.429)"/>
        <path id="Trazado_898082" data-name="Trazado 898082" d="M0,0H2.031V2.031H0Z" transform="translate(38.819 40.264) rotate(-45)"/>
        <path id="Trazado_898083" data-name="Trazado 898083" d="M38,47h2.032v2.032H38Z" transform="translate(-1.429 -1.287)"/>
        <path id="Trazado_898084" data-name="Trazado 898084" d="M0,0H2.031V2.031H0Z" transform="translate(38.817 53.193) rotate(-45)"/>
        <path id="Trazado_898085" data-name="Trazado 898085" d="M47,56h2.032v2.032H47Z" transform="translate(-1.287 -1.144)"/>
        <path id="Trazado_898086" data-name="Trazado 898086" d="M0,0H2.031V2.031H0Z" transform="translate(51.746 53.194) rotate(-45)"/>
        <path id="Trazado_898087" data-name="Trazado 898087" d="M56,47h2.032v2.032H56Z" transform="translate(-1.144 -1.287)"/>
        <path id="Trazado_898088" data-name="Trazado 898088" d="M0,0H2.031V2.031H0Z" transform="translate(51.748 40.266) rotate(-45)"/>
        <path id="Trazado_898089" data-name="Trazado 898089" d="M20,21h2.032v2.032H20Z" transform="translate(-1.715 -1.699)"/>
        <path id="Trazado_898090" data-name="Trazado 898090" d="M30,21h2.032v2.032H30Z" transform="translate(-1.556 -1.699)"/>
        <path id="Trazado_898091" data-name="Trazado 898091" d="M26.063,31.063A4.063,4.063,0,0,0,30.127,27H28.1a2.032,2.032,0,0,1-4.063,0H22A4.063,4.063,0,0,0,26.063,31.063Z" transform="translate(-1.683 -1.604)"/>
      </g>
    </g>
  </g>
</svg>
